<svg width="298" height="298" viewBox="0 0 298 298" fill="none" xmlns="http://www.w3.org/2000/svg">
<g clip-path="url(#clip0_11_8)">
<rect width="298" height="298" fill="#F0DB4F"/>
<path d="M298 0H0V298H298V0Z" fill="#F0DB4F"/>
<path d="M200.18 232.814C206.183 242.615 213.992 249.819 227.804 249.819C239.408 249.819 246.82 244.019 246.82 236.007C246.82 226.404 239.204 223.003 226.433 217.417L219.432 214.413C199.225 205.804 185.801 195.02 185.801 172.22C185.801 151.218 201.803 135.231 226.811 135.231C244.615 135.231 257.415 141.427 266.639 157.651L244.833 171.653C240.032 163.044 234.852 159.652 226.811 159.652C218.609 159.652 213.411 164.855 213.411 171.653C213.411 180.053 218.614 183.454 230.628 188.658L237.629 191.657C261.422 201.86 274.855 212.261 274.855 235.647C274.855 260.859 255.05 274.671 228.452 274.671C202.446 274.671 185.645 262.278 177.424 246.034L200.18 232.814ZM101.259 235.24C105.658 243.045 109.659 249.644 119.28 249.644C128.481 249.644 134.284 246.044 134.284 232.047V136.829H162.287V232.426C162.287 261.422 145.287 274.619 120.472 274.619C98.0515 274.619 85.0672 263.016 78.4639 249.04L101.259 235.24Z" fill="#323330"/>
</g>
<defs>
<clipPath id="clip0_11_8">
<rect width="298" height="298" fill="white"/>
</clipPath>
</defs>
</svg>
